<svg width="40" height="40" viewBox="0 0 40 40" fill="none" xmlns="http://www.w3.org/2000/svg">
<path d="M29.533 35.5547H9.53299C9.2383 35.5547 8.95569 35.6717 8.74731 35.8801C8.53894 36.0885 8.42188 36.3711 8.42188 36.6658C8.42188 36.9605 8.53894 37.2431 8.74731 37.4515C8.95569 37.6598 9.2383 37.7769 9.53299 37.7769H29.533C29.8277 37.7769 30.1103 37.6598 30.3187 37.4515C30.527 37.2431 30.6441 36.9605 30.6441 36.6658C30.6441 36.3711 30.527 36.0885 30.3187 35.8801C30.1103 35.6717 29.8277 35.5547 29.533 35.5547Z" fill="#FF6F61"/>
<path d="M35.0013 14.8346C34.4527 14.9456 33.8944 15.0015 33.3346 15.0012C32.0713 15.0011 30.8248 14.7123 29.6902 14.1568C28.9724 16.227 27.9297 18.1698 26.6013 19.9123C26.8402 20.3121 26.9669 20.7689 26.968 21.2346C28.7947 21.6127 30.6587 21.7804 32.5235 21.7346C32.3372 22.3162 32.1107 22.8843 31.8458 23.4346H31.2235C29.6038 23.4289 27.9912 23.2199 26.4235 22.8123C26.0511 23.3185 25.5045 23.669 24.889 23.7962C24.2736 23.9234 23.6328 23.8183 23.0902 23.5012C20.8059 25.3394 18.1535 26.6656 15.3124 27.3901C15.2262 27.8474 15.0189 28.2732 14.7121 28.623C14.4052 28.9728 14.0101 29.2339 13.568 29.379L13.2457 29.4457C11.8083 28.651 10.531 27.596 9.47908 26.3346H10.2124C10.3187 25.8055 10.5876 25.3228 10.9816 24.9541C11.3756 24.5853 11.875 24.3489 12.41 24.2779C12.945 24.2069 13.4887 24.3049 13.9653 24.5581C14.4418 24.8113 14.8274 25.2071 15.068 25.6901C17.5868 25.0253 19.9401 23.8448 21.9791 22.2234C21.8011 21.8147 21.7322 21.3668 21.7791 20.9234C21.3124 20.6568 20.8457 20.379 20.3902 20.079C17.9696 18.4741 15.9385 16.3481 14.4457 13.8568C13.9996 13.9793 13.5286 13.9789 13.0827 13.8556C12.6367 13.7324 12.2324 13.4909 11.9124 13.1568C9.84566 14.6708 7.97895 16.4404 6.35686 18.4234V17.7901C6.36224 17.1465 6.41423 16.504 6.51241 15.8679C7.8452 14.2323 9.4187 12.8086 11.1791 11.6457C11.1166 11.1551 11.199 10.6571 11.4162 10.2128C11.6334 9.76858 11.9758 9.39762 12.4013 9.14566C12.268 8.66789 12.1346 8.19011 12.0346 7.70122C12.0346 7.54566 12.0346 7.379 11.9124 6.99011C12.3974 6.6339 12.906 6.31094 13.4346 6.02344C13.5457 6.679 13.5902 7.02344 13.668 7.36789C13.7457 7.71233 13.8902 8.31233 14.0235 8.779H14.3013C14.7775 8.88913 15.2128 9.13182 15.5569 9.479C18.6389 8.40042 21.9329 8.06911 25.168 8.51233C24.777 6.80691 24.9365 5.02146 25.6235 3.41233C23.2631 2.44475 20.7009 2.07254 18.1628 2.3285C15.6246 2.58446 13.1883 3.46072 11.0686 4.88009C8.94887 6.29946 7.21075 8.21837 6.00738 10.4678C4.80402 12.7171 4.17232 15.228 4.16797 17.779C4.16797 18.279 4.16797 18.7679 4.24575 19.2568C4.44623 21.3531 5.07026 23.3868 6.08002 25.2348C7.08978 27.0827 8.46425 28.7064 10.1201 30.0075C11.776 31.3085 13.6788 32.2598 15.7132 32.8037C17.7476 33.3475 19.8713 33.4727 21.9555 33.1715C24.0397 32.8703 26.041 32.1491 27.8382 31.0515C29.6354 29.9539 31.191 28.5029 32.4108 26.7863C33.6306 25.0697 34.4892 23.1233 34.9345 21.0651C35.3798 19.0068 35.4025 16.8796 35.0013 14.8123V14.8346Z" fill="#FF6F61"/>
<path d="M16.3543 10.9667C16.41 11.3128 16.3923 11.6667 16.3023 12.0055C16.2123 12.3444 16.0521 12.6605 15.832 12.9333C17.1936 15.2607 19.0668 17.2479 21.3098 18.7444C21.6876 19 22.0765 19.2222 22.4209 19.4444C22.7738 19.0543 23.2395 18.7837 23.7532 18.6702C24.2669 18.5567 24.8031 18.606 25.2876 18.8111C26.5569 17.1337 27.537 15.256 28.1876 13.2556C27.1695 12.465 26.348 11.4497 25.7876 10.2889C22.6365 9.71121 19.3903 9.94445 16.3543 10.9667Z" fill="#FF6F61"/>
<path d="M33.3329 12.2231C36.4012 12.2231 38.8885 9.73574 38.8885 6.66749C38.8885 3.59925 36.4012 1.11194 33.3329 1.11194C30.2647 1.11194 27.7773 3.59925 27.7773 6.66749C27.7773 9.73574 30.2647 12.2231 33.3329 12.2231Z" fill="#FF6F61"/>
</svg>
