<?xml version="1.0" encoding="UTF-8"?>
<svg version="1.1" xmlns="http://www.w3.org/2000/svg" width="70" height="70">
<path d="M0 0 C9.88869366 5.81586346 16.18371269 13.07946401 19.23828125 24.31640625 C20.38735482 37.08982869 18.61354015 47.16824221 10.296875 57.2734375 C3.21022892 64.30629499 -5.61611128 67.71862775 -15.51171875 67.69140625 C-26.47606606 67.63253223 -34.98655606 64.15103481 -42.76171875 56.31640625 C-50.24991451 46.1985229 -51.71146652 36.5669503 -50.76171875 24.31640625 C-48.94192176 16.08918036 -44.07411436 8.50798906 -37.296875 3.4921875 C-26.19180869 -3.40464315 -12.20554198 -5.88737907 0 0 Z " fill="#FF6F61" transform="translate(50.76171875,2.68359375)"/>
<path d="M0 0 C3.03005627 1.30421717 5.89826028 2.82437124 8.79296875 4.40625 C9.95183594 5.0353125 11.11070313 5.664375 12.3046875 6.3125 C15.10546875 7.90625 15.10546875 7.90625 16.10546875 8.90625 C16.14627658 10.90583364 16.14801231 12.90670254 16.10546875 14.90625 C15.44546875 14.90625 14.78546875 14.90625 14.10546875 14.90625 C13.61046875 13.42125 13.61046875 13.42125 13.10546875 11.90625 C12.44546875 12.23625 11.78546875 12.56625 11.10546875 12.90625 C10.44774447 15.93559491 10.44774447 15.93559491 10.10546875 18.90625 C8.45546875 19.23625 6.80546875 19.56625 5.10546875 19.90625 C4.77546875 18.91625 4.44546875 17.92625 4.10546875 16.90625 C3.44546875 17.23625 2.78546875 17.56625 2.10546875 17.90625 C2.10546875 22.52625 2.10546875 27.14625 2.10546875 31.90625 C3.89984375 31.04 5.69421875 30.17375 7.54296875 29.28125 C8.55230469 28.79398438 9.56164063 28.30671875 10.6015625 27.8046875 C13.41284718 26.07820658 13.41284718 26.07820658 13.953125 22.6953125 C14.00339844 21.77492188 14.05367187 20.85453125 14.10546875 19.90625 C14.76546875 19.90625 15.42546875 19.90625 16.10546875 19.90625 C16.10546875 22.21625 16.10546875 24.52625 16.10546875 26.90625 C13.83650243 28.22207063 11.56543688 29.53400236 9.29296875 30.84375 C8.65037109 31.21693359 8.00777344 31.59011719 7.34570312 31.97460938 C4.62230451 33.54091635 2.09438753 34.90994374 -0.89453125 35.90625 C-2.37953125 35.41125 -2.37953125 35.41125 -3.89453125 34.90625 C-5.33540669 36.18338959 -6.7748539 37.46228467 -8.19921875 38.7578125 C-10.98709633 40.64637473 -13.66249637 40.22945349 -16.89453125 39.90625 C-17.22453125 39.24625 -17.55453125 38.58625 -17.89453125 37.90625 C-17.19585937 37.79667969 -16.4971875 37.68710937 -15.77734375 37.57421875 C-14.86726563 37.41566406 -13.9571875 37.25710937 -13.01953125 37.09375 C-12.11460938 36.94292969 -11.2096875 36.79210938 -10.27734375 36.63671875 C-7.55040647 36.07573699 -7.55040647 36.07573699 -5.89453125 32.90625 C-5.47197988 29.03286246 -5.32785567 26.79026391 -7.45703125 23.46875 C-10.83670929 21.30228972 -12.95437112 21.34336998 -16.89453125 21.90625 C-19.43455138 23.27908423 -19.43455138 23.27908423 -20.89453125 25.90625 C-21.50344972 28.61026084 -21.70897251 31.12286895 -21.89453125 33.90625 C-22.55453125 33.57625 -23.21453125 33.24625 -23.89453125 32.90625 C-24.32988923 28.55267017 -24.28374939 25.86525264 -21.51953125 22.46875 C-18.89453125 19.90625 -18.89453125 19.90625 -16.89453125 19.90625 C-17.01054687 19.18179688 -17.1265625 18.45734375 -17.24609375 17.7109375 C-17.54249852 14.5351721 -17.60334958 12.02505065 -16.89453125 8.90625 C-13.93525609 6.07661928 -10.59107962 4.58993335 -6.89453125 2.90625 C-5.61642578 2.05546875 -5.61642578 2.05546875 -4.3125 1.1875 C-1.89453125 -0.09375 -1.89453125 -0.09375 0 0 Z " fill="#FFE9E7" transform="translate(38.89453125,15.09375)"/>
<path d="M0 0 C2.25203319 1.12189199 4.47965345 2.29347244 6.6875 3.5 C7.84636719 4.1290625 9.00523438 4.758125 10.19921875 5.40625 C13 7 13 7 14 8 C14.04080783 9.99958364 14.04254356 12.00045254 14 14 C13.34 14 12.68 14 12 14 C11.67 13.01 11.34 12.02 11 11 C10.01 11.495 10.01 11.495 9 12 C8.34227572 15.02934491 8.34227572 15.02934491 8 18 C6.35 18.33 4.7 18.66 3 19 C2.67 18.01 2.34 17.02 2 16 C1.01 16.33 0.02 16.66 -1 17 C-3.65824091 15.7711083 -6.14608591 14.49812607 -8.6875 13.0625 C-9.7403418 12.48338867 -9.7403418 12.48338867 -10.81445312 11.89257812 C-12.54795672 10.93738227 -14.27465009 9.96984614 -16 9 C-15.29541016 5.21728516 -15.29541016 5.21728516 -12.63671875 3.26171875 C-11.66347656 2.74222656 -10.69023437 2.22273438 -9.6875 1.6875 C-8.72199219 1.15511719 -7.75648437 0.62273438 -6.76171875 0.07421875 C-3.69128072 -1.12008176 -2.95798167 -1.27170803 0 0 Z " fill="#FFD1CC" transform="translate(41,16)"/>
<path d="M0 0 C3.69186542 2.59216083 4.82883761 4.04149064 5.625 8.5 C5 12 5 12 3.0625 14.875 C-0.92198267 17.63974308 -4.24095282 17.88594876 -9 18 C-9 17.34 -9 16.68 -9 16 C-9.66 16 -10.32 16 -11 16 C-11 15.34 -11 14.68 -11 14 C-11.66 13.67 -12.32 13.34 -13 13 C-12.77082032 11.39272673 -12.51579198 9.78912584 -12.25 8.1875 C-12.11078125 7.29417969 -11.9715625 6.40085937 -11.828125 5.48046875 C-9.91966836 -0.235899 -5.48357154 -0.76962408 0 0 Z " fill="#FF776A" transform="translate(29,36)"/>
<path d="M0 0 C4.62 2.31 9.24 4.62 14 7 C14 11.95 14 16.9 14 22 C13.34 22 12.68 22 12 22 C11.7525 20.7625 11.505 19.525 11.25 18.25 C10.28352551 14.45121831 9.26584812 12.35866809 6 10 C2.86649283 8.73215876 2.86649283 8.73215876 0 8 C0 5.36 0 2.72 0 0 Z " fill="#FF7567" transform="translate(24,26)"/>
<path d="M0 0 C5.47932789 1.54545146 10.11429181 4.15543212 15 7 C14 9 14 9 12.359375 9.83984375 C8.7777759 10.08296554 6.24641362 8.31095674 3.25 6.5625 C2.64800781 6.22412109 2.04601562 5.88574219 1.42578125 5.53710938 C-0.05568065 4.70231735 -1.52870608 3.85258506 -3 3 C-2.01 2.01 -1.02 1.02 0 0 Z " fill="#FF786A" transform="translate(28,22)"/>
<path d="M0 0 C2.67578125 1.41015625 2.67578125 1.41015625 5.3125 3.0625 C6.19550781 3.61035156 7.07851563 4.15820312 7.98828125 4.72265625 C8.65214844 5.14417969 9.31601562 5.56570312 10 6 C9.34 6.66 8.68 7.32 8 8 C2.23251993 7.85932975 -2.19466767 4.89387792 -7 2 C-7 1.34 -7 0.68 -7 0 C-4.24346459 -1.37826771 -2.94580386 -0.82040425 0 0 Z " fill="#FF7669" transform="translate(42,18)"/>
<path d="M0 0 C3.16012459 1.12665312 5.99113968 2.69281083 8.93359375 4.30078125 C10.09246094 4.92984375 11.25132813 5.55890625 12.4453125 6.20703125 C15.24609375 7.80078125 15.24609375 7.80078125 16.24609375 8.80078125 C16.28690158 10.80036489 16.28863731 12.80123379 16.24609375 14.80078125 C15.58609375 14.80078125 14.92609375 14.80078125 14.24609375 14.80078125 C13.91609375 13.81078125 13.58609375 12.82078125 13.24609375 11.80078125 C12.25609375 12.13078125 11.26609375 12.46078125 10.24609375 12.80078125 C9.58609375 12.14078125 8.92609375 11.48078125 8.24609375 10.80078125 C9.56609375 10.14078125 10.88609375 9.48078125 12.24609375 8.80078125 C10.52453279 7.78774363 8.79347569 6.79083277 7.05859375 5.80078125 C6.09566406 5.24390625 5.13273437 4.68703125 4.140625 4.11328125 C1.19720632 2.77861367 -0.57270682 2.52162664 -3.75390625 2.80078125 C-3.75390625 3.46078125 -3.75390625 4.12078125 -3.75390625 4.80078125 C-4.74390625 4.80078125 -5.73390625 4.80078125 -6.75390625 4.80078125 C-6.75390625 4.14078125 -6.75390625 3.48078125 -6.75390625 2.80078125 C-2.6223782 -0.29786478 -2.6223782 -0.29786478 0 0 Z " fill="#FFE8E6" transform="translate(38.75390625,15.19921875)"/>
<path d="M0 0 C0.33 0 0.66 0 1 0 C1.33 4.62 1.66 9.24 2 14 C3.794375 13.13375 5.58875 12.2675 7.4375 11.375 C8.95150391 10.64410156 8.95150391 10.64410156 10.49609375 9.8984375 C13.30737843 8.17195658 13.30737843 8.17195658 13.84765625 4.7890625 C13.89792969 3.86867187 13.94820312 2.94828125 14 2 C14.66 2 15.32 2 16 2 C16 4.31 16 6.62 16 9 C13.73103368 10.31582063 11.45996813 11.62775236 9.1875 12.9375 C8.54490234 13.31068359 7.90230469 13.68386719 7.24023438 14.06835938 C4.51683576 15.63466635 1.98891878 17.00369374 -1 18 C-0.505 9.09 -0.505 9.09 0 0 Z " fill="#FFD7D3" transform="translate(39,33)"/>
<path d="M0 0 C0.33 0.66 0.66 1.32 1 2 C1.94875 1.95875 2.8975 1.9175 3.875 1.875 C7 2 7 2 9 4 C8.625 6.625 8.625 6.625 8 9 C6.02 9 4.04 9 2 9 C2.9590625 8.5978125 2.9590625 8.5978125 3.9375 8.1875 C6.33131686 7.11332248 6.33131686 7.11332248 7 4 C4.36 4.33 1.72 4.66 -1 5 C-1.33 4.01 -1.66 3.02 -2 2 C-1.34 1.34 -0.68 0.68 0 0 Z " fill="#FFE6E4" transform="translate(22,40)"/>
</svg>
