<svg width="70" height="70" viewBox="0 0 70 70" fill="none" xmlns="http://www.w3.org/2000/svg">
<circle cx="35" cy="35" r="35" fill="#FF6F61"/>
<path fill-rule="evenodd" clip-rule="evenodd" d="M19.0787 21.0674C18.868 21.1425 18.4643 21.5072 18.3173 21.755C18.2477 21.8724 18.1754 22.6165 18.1454 23.5262L18.0935 25.0949L16.0713 25.1511C14.9592 25.1819 14.0353 25.216 14.0183 25.227C14.0013 25.2378 13.9255 25.3902 13.85 25.5656C13.6557 26.0164 13.7819 26.3754 14.21 26.5895C14.5403 26.7547 14.9678 26.7663 19.7877 26.7413L25.0076 26.7142L25.2579 26.4302C25.5648 26.082 25.5758 25.7629 25.2931 25.4122L25.0783 25.1455H22.4414H19.8046V23.8804V22.6153H33.5454H47.2862L47.2599 33.1662L47.2334 43.7171L41.1899 43.7432C36.4084 43.7638 35.1369 43.7427 35.101 43.642C34.6194 42.2897 34.1838 41.6409 33.335 41.0115C31.9872 40.012 30.057 39.8627 28.5008 40.6375C27.5596 41.1061 26.6975 42.1234 26.3207 43.2097L26.1447 43.7171L22.9746 43.7438L19.8046 43.7706V41.4413V39.1121H21.2045C22.4663 39.1121 22.625 39.0921 22.8119 38.9097C23.1272 38.602 23.1222 38.0677 22.8008 37.7458C22.6037 37.5484 22.4622 37.5434 16.9928 37.5434H11.3869L11.1365 37.8274C10.8296 38.1757 10.8186 38.4948 11.1013 38.8455L11.3161 39.1121H14.7308H18.1454V41.9853C18.1454 44.6629 18.1588 44.8748 18.3435 45.0975L18.5416 45.3364L22.3505 45.387L26.1595 45.4376L26.2834 45.8425C26.7667 47.4218 28.187 48.6332 29.915 48.9396C32.0037 49.3102 34.3342 47.9322 34.9224 45.9788L35.1004 45.3873L42.6251 45.3871L50.1497 45.387L50.282 45.891C50.5684 46.9816 51.5386 48.056 52.7099 48.5793C55.1592 49.6737 57.9925 48.4871 58.8912 45.9907L59.0903 45.4376L60.0626 45.387C61.141 45.3308 61.4636 45.1946 61.8119 44.6478C62.007 44.3411 62.0163 44.1688 61.9884 41.3387C61.9594 38.4005 61.9548 38.3435 61.6957 37.7458C61.5511 37.4119 60.3944 35.3169 59.1254 33.0903C56.6988 28.8323 56.3886 28.3988 55.6204 28.1906C55.3744 28.1239 54.0028 28.0814 52.087 28.0811L48.9557 28.0805L48.9241 25.019C48.893 21.9992 48.8893 21.9529 48.6511 21.627C48.1558 20.9493 49.2697 20.9952 33.5242 21.004C25.6647 21.0083 19.1642 21.037 19.0787 21.0674ZM18.612 28.5064C18.1657 28.7562 18.1521 28.8409 18.1487 31.3951L18.1454 33.8493H16.8963C15.7083 33.8493 15.6347 33.8615 15.3926 34.0978C15.0558 34.4264 15.0558 34.8916 15.3926 35.2202L15.6471 35.4687H23.2599C30.8044 35.4687 30.875 35.4667 31.1458 35.2589C31.5318 34.9626 31.5318 34.3554 31.1458 34.0591C30.8771 33.8529 30.7801 33.8493 25.3386 33.8493H19.8046V31.4126V28.9758L19.5015 28.68C19.1784 28.3647 18.9461 28.3194 18.612 28.5064ZM9.25022 29.7562C8.89567 29.9985 8.92346 30.7246 9.29834 31.0123C9.57003 31.2209 9.65434 31.2254 12.7297 31.1968L15.8825 31.1673L16.0806 30.9284C16.3557 30.5967 16.3366 30.0918 16.0388 29.8186C15.8032 29.6027 15.7404 29.5986 12.6397 29.5986C9.94833 29.5986 9.44652 29.6219 9.25022 29.7562ZM55.3352 29.8898C55.6777 30.2801 60.0533 38.0692 60.1994 38.5486C60.3142 38.9251 60.3516 39.6282 60.3516 41.4125V43.7773L59.7218 43.7473L59.092 43.7171L58.9164 43.2097C58.1339 40.9486 55.7868 39.6904 53.4513 40.2803C51.9567 40.6578 50.6814 41.8613 50.2386 43.3123C50.1152 43.7168 50.1145 43.7171 49.5298 43.7475L48.9445 43.7778V36.7388V29.6998H52.0565C54.9722 29.6998 55.1791 29.7118 55.3352 29.8898ZM31.5137 41.9021C32.1532 42.0874 32.8859 42.6953 33.2045 43.3048C33.5004 43.8709 33.5635 44.8242 33.3471 45.4601C33.1222 46.1209 32.5635 46.7463 31.9 47.0799C31.2523 47.4057 30.1635 47.4462 29.5196 47.1686C28.9216 46.9108 28.2558 46.2554 27.9983 45.6711C27.7144 45.0273 27.7379 43.9426 28.0492 43.3166C28.4802 42.4499 29.5769 41.761 30.5446 41.7488C30.7767 41.7459 31.2128 41.8149 31.5137 41.9021ZM55.6158 41.9484C57.5878 42.6684 58.0944 45.2509 56.5332 46.6245C55.9377 47.1484 55.4435 47.3366 54.648 47.3424C53.0453 47.3539 51.8698 46.2917 51.7677 44.7397C51.7084 43.8375 51.9596 43.1914 52.6127 42.5659C53.4278 41.7851 54.5416 41.5561 55.6158 41.9484Z" fill="white"/>
</svg>
