<?xml version="1.0" encoding="UTF-8"?>
<svg version="1.1" xmlns="http://www.w3.org/2000/svg" width="70" height="70">
<path d="M0 0 C9.88869366 5.81586346 16.18371269 13.07946401 19.23828125 24.31640625 C20.38735482 37.08982869 18.61354015 47.16824221 10.296875 57.2734375 C3.21022892 64.30629499 -5.61611128 67.71862775 -15.51171875 67.69140625 C-26.47606606 67.63253223 -34.98655606 64.15103481 -42.76171875 56.31640625 C-50.24991451 46.1985229 -51.71146652 36.5669503 -50.76171875 24.31640625 C-48.94192176 16.08918036 -44.07411436 8.50798906 -37.296875 3.4921875 C-26.19180869 -3.40464315 -12.20554198 -5.88737907 0 0 Z " fill="#FF6F61" transform="translate(50.76171875,2.68359375)"/>
<path d="M0 0 C1.58255197 4.32564205 2.45144652 8.428721 3 13 C5.475 13.495 5.475 13.495 8 14 C8.02888146 17.31248187 8.04675799 20.62493167 8.0625 23.9375 C8.07087891 24.88302734 8.07925781 25.82855469 8.08789062 26.80273438 C8.09111328 27.70185547 8.09433594 28.60097656 8.09765625 29.52734375 C8.10289307 30.35999756 8.10812988 31.19265137 8.11352539 32.05053711 C8 34 8 34 7 35 C4.49075847 35.10087212 2.00963616 35.13972032 -0.5 35.1328125 C-1.25087891 35.13376923 -2.00175781 35.13472595 -2.77539062 35.13571167 C-4.36588627 35.13639338 -5.95638467 35.13453972 -7.546875 35.13037109 C-9.98964655 35.12502267 -12.43223421 35.13031634 -14.875 35.13671875 C-16.41666707 35.13605797 -17.95833403 35.1347768 -19.5 35.1328125 C-20.23541016 35.13483673 -20.97082031 35.13686096 -21.72851562 35.13894653 C-26.88504839 35.11495161 -26.88504839 35.11495161 -28 34 C-28.04092937 31.66702567 -28.04241723 29.33294775 -28 27 C-29.32 26.67 -30.64 26.34 -32 26 C-33.64006048 19.33042073 -34.51358785 12.84817102 -35 6 C-28.09567386 4.12425822 -21.16384641 2.57843549 -14.125 1.3125 C-13.05584351 1.11563599 -13.05584351 1.11563599 -11.96508789 0.91479492 C-7.9289479 0.20921575 -4.09530453 -0.13479843 0 0 Z " fill="#FFDFDC" transform="translate(49,18)"/>
<path d="M0 0 C10.89 0 21.78 0 33 0 C33 3.63 33 7.26 33 11 C32.34 10.01 31.68 9.02 31 8 C29.03638136 7.42251197 29.03638136 7.42251197 26.875 7.3125 C24.956875 7.1578125 24.956875 7.1578125 23 7 C23.33 8.65 23.66 10.3 24 12 C26.97 12.495 26.97 12.495 30 13 C28.68 13.33 27.36 13.66 26 14 C26 14.66 26 15.32 26 16 C27.65 16 29.3 16 31 16 C31.33 14.68 31.66 13.36 32 12 C32.33 12 32.66 12 33 12 C33 14.31 33 16.62 33 19 C28.46102295 19.02465392 23.92208457 19.04283789 19.38305664 19.05493164 C17.83780234 19.0599714 16.29255284 19.0668032 14.74731445 19.07543945 C12.53074971 19.08752076 10.31424782 19.09323173 8.09765625 19.09765625 C7.05545677 19.10539818 7.05545677 19.10539818 5.99220276 19.11329651 C4.3277067 19.11349277 2.66334501 19.06189129 1 19 C0 18 0 18 -0.11352539 16.23413086 C-0.10828857 15.48526611 -0.10305176 14.73640137 -0.09765625 13.96484375 C-0.09515869 13.23644287 -0.09266113 12.50804199 -0.09008789 11.75756836 C-0.08098389 10.8269458 -0.07187988 9.89632324 -0.0625 8.9375 C-0.041875 5.988125 -0.02125 3.03875 0 0 Z " fill="#FF786B" transform="translate(22,33)"/>
<path d="M0 0 C0.495 2.97 0.495 2.97 1 6 C-8.24 6.33 -17.48 6.66 -27 7 C-27.33 10.63 -27.66 14.26 -28 18 C-28.99 18 -29.98 18 -31 18 C-31.66 13.71 -32.32 9.42 -33 5 C-29.66726243 4.35096143 -26.33386829 3.70568287 -23 3.0625 C-22.06542969 2.88009766 -21.13085938 2.69769531 -20.16796875 2.50976562 C-13.44900262 1.21765675 -6.8635236 0 0 0 Z " fill="#FF7063" transform="translate(49,25)"/>
<path d="M0 0 C0.495 1.485 0.495 1.485 1 3 C-21.59489033 7.36275707 -21.59489033 7.36275707 -32 9 C-32 7.68 -32 6.36 -32 5 C-28.62522069 4.35300994 -25.25013807 3.70761568 -21.875 3.0625 C-20.92367188 2.88009766 -19.97234375 2.69769531 -18.9921875 2.50976562 C-5.0694002 -0.14910001 -5.0694002 -0.14910001 0 0 Z " fill="#FF7366" transform="translate(48,20)"/>
<path d="M0 0 C0.33 0 0.66 0 1 0 C1 5.94 1 11.88 1 18 C0.67 18 0.34 18 0 18 C-0.33 16.35 -0.66 14.7 -1 13 C-1.33 13.99 -1.66 14.98 -2 16 C-3.65 16 -5.3 16 -7 16 C-7 15.34 -7 14.68 -7 14 C-7.99 13.34 -8.98 12.68 -10 12 C-10.1875 9.375 -10.1875 9.375 -10 7 C-3.84765625 6.90234375 -3.84765625 6.90234375 -2 7 C-1.67 7.33 -1.34 7.66 -1 8 C-0.67 5.36 -0.34 2.72 0 0 Z " fill="#FFA59D" transform="translate(55,33)"/>
<path d="M0 0 C-0.66 0.66 -1.32 1.32 -2 2 C-2.46290221 4.66242821 -2.46290221 4.66242821 -2.625 7.625 C-2.69976563 8.62789062 -2.77453125 9.63078125 -2.8515625 10.6640625 C-2.90054687 11.43492188 -2.94953125 12.20578125 -3 13 C-3.99 13 -4.98 13 -6 13 C-6.66 8.71 -7.32 4.42 -8 0 C-4.29847322 -0.92538169 -3.36541838 -1.08174162 0 0 Z " fill="#FF7B6F" transform="translate(24,30)"/>
<path d="M0 0 C2.64 0 5.28 0 8 0 C8 1.65 8 3.3 8 5 C5.36 5 2.72 5 0 5 C0 3.35 0 1.7 0 0 Z " fill="#FFF8F8" transform="translate(45,40)"/>
<path d="M0 0 C1.98 0 3.96 0 6 0 C6 0.99 6 1.98 6 3 C4.02 3 2.04 3 0 3 C0 2.01 0 1.02 0 0 Z " fill="#FF877C" transform="translate(46,41)"/>
</svg>
