<svg width="40" height="45" viewBox="0 0 40 45" fill="none" xmlns="http://www.w3.org/2000/svg">
<path fill-rule="evenodd" clip-rule="evenodd" d="M14.5646 0.16179C14.2028 0.419646 14.1922 0.624149 14.5096 1.23041C14.807 1.79869 15.2626 2.95297 15.2626 3.13827C15.2626 3.21877 14.8667 3.23213 13.6 3.19433C11.6599 3.13643 10.536 2.94869 8.99335 2.42486C8.14532 2.13688 7.92702 2.09296 7.71239 2.16692C7.24543 2.32776 7.19551 2.59749 7.43568 3.66219C7.87238 5.59816 8.71443 7.46078 9.79599 8.88331L10.3221 9.57532L10.0023 9.6223C8.88445 9.78663 8.03236 10.6985 8.03516 11.7275C8.03718 12.5029 8.74161 13.3616 9.58165 13.6128C9.79069 13.6753 9.96089 13.7497 9.95984 13.7779C9.95319 13.9545 8.48785 15.6234 6.87023 17.2968C3.95536 20.3123 3.10309 21.3482 2.07203 23.129C0.585782 25.6962 -0.0121497 27.9765 0.000186748 31.0315C0.00731875 32.8227 0.147453 33.6858 0.666258 35.1355C2.44193 40.097 7.92259 43.5891 15.3343 44.4816C19.4251 44.9742 23.9783 44.548 27.5722 43.3361C33.2013 41.438 36.6621 37.9368 37.5771 33.2145C37.6742 32.7128 37.7296 31.9075 37.7302 30.9878C37.7324 27.4275 36.7087 24.3912 34.4932 21.3869C33.667 20.2664 33.1326 19.6646 31.2025 17.6808C29.7166 16.1537 28.5729 14.915 28.5665 14.8261C28.5644 14.798 30.0266 15.0825 31.8156 15.4582C37.9007 16.7363 37.7162 16.7058 38.3449 16.5402C40.4478 15.9864 40.5829 13.342 38.5429 12.6627C38.2751 12.5735 37.4067 12.3694 36.6131 12.2089L35.17 11.9172L36.1142 11.6509C37.1913 11.347 37.6833 11.0315 37.9979 10.4428C38.2561 9.95926 38.2666 9.16675 38.0209 8.6768C37.6609 7.95885 36.6763 7.44069 35.817 7.5171C35.5643 7.53954 33.8482 7.94043 32.0036 8.40794L28.6497 9.258L28.2802 8.88069L27.9107 8.50338L28.5281 7.38699C30.4085 3.98702 31.4555 1.21819 31.1554 0.438332C30.9797 -0.0181764 30.7462 -0.0562479 29.4133 0.154892C27.4156 0.471165 26.0913 0.596731 24.1294 0.655759C21.6007 0.731815 18.0745 0.501814 15.8461 0.11551C14.9117 -0.0464681 14.8539 -0.0443724 14.5646 0.16179ZM29.623 1.50128C29.623 1.51638 29.4755 1.93884 29.2952 2.43997C28.8576 3.65625 28.1084 5.24189 27.2201 6.83181L26.4907 8.13733L25.9632 8.29966C25.3918 8.47535 24.792 8.93727 24.6056 9.34488L24.4915 9.59444H23.459H22.4264L21.9865 8.69941C21.0325 6.75846 20.5204 5.2473 20.4108 4.04962C20.3018 2.85797 20.0929 2.70097 18.8926 2.90896C18.4795 2.98057 17.8274 3.065 17.4434 3.09653L16.7453 3.15381L16.5315 2.3888C16.4139 1.96809 16.3366 1.60667 16.3597 1.58572C16.3829 1.56476 16.937 1.60825 17.5911 1.68238C21.3789 2.11191 25.0273 2.10239 28.2331 1.6547C29.5363 1.47264 29.623 1.46312 29.623 1.50128ZM11.75 4.40502C13.262 4.61284 16.0982 4.61196 17.71 4.40318C18.9484 4.24278 19.0167 4.25762 19.0199 4.68767C19.0247 5.34781 20.0185 8.10616 20.6652 9.25477L20.8565 9.59444H16.5263H12.1961L11.702 9.02477C10.3918 7.51439 9.43303 5.74084 9.05128 4.12184L8.98593 3.84486L9.79233 4.04587C10.2358 4.15642 11.1168 4.31805 11.75 4.40502ZM36.5863 9.07751C36.679 9.18037 36.755 9.39334 36.755 9.55078C36.755 10.0881 36.5831 10.1733 34.3448 10.745L32.2734 11.274L31.5016 11.135C30.1718 10.8955 28.9405 10.6202 28.9917 10.5739C29.0187 10.5495 30.5488 10.1433 32.3918 9.67146C35.9251 8.76691 36.2629 8.71906 36.5863 9.07751ZM27.0138 9.63487C27.1639 9.70516 27.3134 9.82619 27.3464 9.90399C27.3793 9.98171 27.4063 10.796 27.4063 11.7134C27.4063 13.306 27.3967 13.3908 27.1967 13.5837C26.899 13.8708 26.36 13.8598 26.0496 13.5603C25.8191 13.3378 25.816 13.3129 25.816 11.6527C25.816 9.87046 25.8425 9.75625 26.2945 9.59025C26.5819 9.48468 26.7103 9.49263 27.0138 9.63487ZM24.3221 11.6436V12.3829L20.477 12.4076C16.8523 12.4309 16.6203 12.4419 16.4291 12.5987C16.1645 12.8158 16.1594 13.2885 16.4191 13.5238C16.6055 13.6927 16.7403 13.6985 20.5008 13.6985H24.3897L24.685 14.1289C25.1 14.7337 25.6386 15.0359 26.3815 15.0805L26.9726 15.116L27.5203 15.7825C27.8215 16.1491 28.8141 17.2153 29.7261 18.1518C32.5693 21.0715 33.4346 22.13 34.4355 23.9131C35.6979 26.1621 36.2809 28.3688 36.2815 30.9005C36.282 33.547 35.611 35.566 34.0757 37.5368C29.484 43.4313 17.0495 45.2302 8.51609 41.2346C2.81222 38.5639 0.423095 33.769 1.77904 27.7133C2.19251 25.8668 3.15687 23.8354 4.44121 22.1054C5.22631 21.0478 5.85575 20.3394 7.64434 18.5006C10.0521 16.0252 10.4596 15.5584 11.2186 14.4064L11.6564 13.7421L12.7244 13.7175C13.6461 13.6963 13.8162 13.6692 13.9653 13.52C14.2034 13.2816 14.1853 12.8583 13.9269 12.6239C13.7262 12.4419 13.6218 12.431 11.8509 12.4054C10.1525 12.3809 9.96793 12.3632 9.78231 12.2065C9.36441 11.8538 9.45558 11.2492 9.96176 11.0172C10.1494 10.9312 11.765 10.9065 17.2624 10.9056L24.3221 10.9042V11.6436ZM33.4781 12.9111C35.837 13.3957 37.9089 13.8494 38.0824 13.9194C38.3937 14.0451 38.5862 14.3315 38.5862 14.6687C38.5862 14.9438 38.1585 15.27 37.7954 15.2719C37.6207 15.2728 35.5329 14.8709 33.1558 14.3788L28.8338 13.484L28.89 13.1765C28.9209 13.0073 28.9467 12.6639 28.9473 12.4132C28.948 12.0879 28.9827 11.968 29.0688 11.9938C29.1351 12.0138 31.1192 12.4266 33.4781 12.9111ZM18.1057 16.7916C17.9467 16.8561 17.7188 16.9939 17.5992 17.0978C17.1275 17.507 17.0474 17.7153 16.9974 18.6637L16.9492 19.5766L16.4444 19.7318C15.1059 20.143 13.8293 21.06 13.1652 22.0871C11.7503 24.2755 12.1428 26.9645 14.1343 28.7243C15.3916 29.8354 16.7796 30.2846 18.9731 30.2905C20.0726 30.2935 20.5069 30.4255 21.017 30.912C21.8355 31.6923 21.8078 32.8191 20.9507 33.6205C20.3775 34.1565 20.0133 34.2394 18.3885 34.2034C17.2686 34.1786 17.0728 34.152 16.8354 33.9923C16.4004 33.6999 16.1581 33.3018 16.0844 32.7585C15.998 32.1219 15.721 31.6686 15.2297 31.3602C14.9039 31.1556 14.7475 31.1188 14.2036 31.1188C13.6648 31.1188 13.4976 31.1573 13.1612 31.359C12.5695 31.7138 12.3261 32.1934 12.3453 32.9667C12.3801 34.3631 13.0404 35.5764 14.2723 36.5076C14.7804 36.8916 15.8957 37.4489 16.1584 37.45C16.2223 37.4503 16.4372 37.4914 16.636 37.5415L16.9974 37.6324V38.3733C16.9974 39.4501 17.2443 39.9122 18.0084 40.2655C18.4728 40.4802 19.2433 40.5 19.65 40.3077C19.9761 40.1535 20.3818 39.78 20.5731 39.4579C20.6444 39.3378 20.7256 38.8482 20.7535 38.3699L20.8043 37.5002L21.2103 37.3941C22.6055 37.0291 23.9906 35.9842 24.6801 34.7763C26.1179 32.2576 25.2806 29.2757 22.7071 27.7491C21.5837 27.0826 20.3197 26.8026 18.4159 26.798C17.3762 26.7956 16.687 26.4373 16.3127 25.705C16.0807 25.2511 16.0803 24.5026 16.3118 24.041C16.5638 23.5383 17.2031 23.0711 17.805 22.9496C18.0788 22.8943 18.7951 22.8636 19.4144 22.8803C20.4151 22.9076 20.5669 22.9333 20.8856 23.129C21.4387 23.4689 21.6232 23.9055 21.6257 24.8812C21.6281 25.8122 21.7832 26.232 22.2816 26.6562C23.1309 27.3789 24.6681 27.1174 25.1779 26.1634C25.3508 25.8399 25.3823 25.6219 25.3823 24.7514C25.3823 24.0955 25.3269 23.5271 25.2295 23.1853C25.0347 22.5011 24.5036 21.5822 24.0085 21.0726C23.3356 20.3799 22.0626 19.7159 21.1558 19.5845L20.7561 19.5266V18.7927C20.7561 17.7249 20.4674 17.2013 19.6757 16.8335C19.2584 16.6396 18.5281 16.6201 18.1057 16.7916ZM19.2107 18.146C19.2656 18.2389 19.3105 18.765 19.3105 19.3152C19.3105 20.6022 19.3533 20.6586 20.4499 20.8176C22.6911 21.1428 23.9366 22.5269 23.9366 24.6925C23.9366 25.5828 23.8686 25.7486 23.5029 25.7486C23.1416 25.7486 23.0692 25.5808 23.0692 24.7429C23.0692 23.2875 22.5758 22.455 21.3882 21.9066L20.7264 21.6009H19.0788C17.4381 21.6009 17.4284 21.6021 16.8043 21.8701C16.034 22.2008 15.3137 22.8362 14.9812 23.4781C14.7632 23.8991 14.7325 24.0721 14.7325 24.8754C14.7325 25.7127 14.7563 25.8339 15.0071 26.2726C15.7898 27.6418 17.009 28.1912 19.2688 28.1929C20.6817 28.194 21.7265 28.5685 22.6224 29.3952C23.2148 29.9417 23.5348 30.4508 23.7571 31.2002C24.4334 33.4805 22.9067 35.7063 20.2908 36.2537C19.3375 36.4534 19.3105 36.4957 19.3105 37.7949C19.3105 38.9905 19.2656 39.1086 18.8111 39.1086C18.4788 39.1086 18.4568 39.031 18.4216 37.7355C18.3888 36.5326 18.3099 36.4258 17.3726 36.3151C16.2513 36.1828 15.5119 35.8459 14.7961 35.1413C13.819 34.1793 13.4283 32.385 14.1961 32.385C14.4586 32.385 14.5851 32.5753 14.6824 33.1163C14.86 34.1052 15.4306 34.8267 16.3836 35.2676C16.832 35.4752 16.9297 35.4848 18.5876 35.4848H20.3224L20.9489 35.2146C21.7458 34.8709 22.3444 34.3282 22.7216 33.6074C22.9845 33.1051 23.0187 32.9496 23.0198 32.254C23.0208 31.5828 22.9834 31.3953 22.7629 30.9692C22.4131 30.2929 22.0565 29.9029 21.4548 29.5385C20.7568 29.1158 20.2419 29.0045 18.7322 28.9502C17.3021 28.8989 16.6411 28.7464 15.8487 28.2852C13.921 27.1632 13.2304 24.8295 14.2816 22.9899C14.9094 21.8913 16.0871 21.0985 17.4508 20.8564C18.3399 20.6986 18.3885 20.6212 18.4273 19.2999C18.4451 18.6925 18.5046 18.1464 18.5596 18.0863C18.7114 17.9203 19.0983 17.9559 19.2107 18.146Z" fill="#151A32"/>
</svg>
