<svg width="50" height="43" viewBox="0 0 50 43" fill="none" xmlns="http://www.w3.org/2000/svg">
<path fill-rule="evenodd" clip-rule="evenodd" d="M17.75 0.122335C17.2343 0.26884 16.3548 1.08972 16.1967 1.57214C16.0997 1.86818 16.0689 4.54836 16.0689 12.7114V23.4608L14.992 24.0047C14.3997 24.3037 13.2155 24.991 12.3604 25.5319C11.5054 26.0728 10.7704 26.5153 10.7272 26.5153C10.6839 26.5153 10.4026 26.1965 10.1021 25.8069C9.5215 25.0542 9.2209 24.891 8.76228 25.0793C8.52388 25.1773 1.71684 29.4392 0.545118 30.2242C-0.411106 30.8647 -0.647824 30.4536 4.47277 37.0429C9.08421 42.9771 9.10669 43.0021 9.68604 42.8624C10.056 42.7732 18.3032 37.5291 18.4511 37.2889C18.6481 36.9692 18.6215 36.8243 18.276 36.3332L17.9613 35.8861L18.4306 35.6178C19.871 34.7944 21.8257 34.5748 24.3326 34.9547C26.3037 35.2533 28.0154 35.2393 29.4126 34.9132C30.6339 34.628 47.6516 29.0603 48.3583 28.7146C49.3838 28.2129 49.9141 27.4149 49.9839 26.268C50.0256 25.5822 49.9997 25.4375 49.7421 24.92C49.4458 24.3249 48.6748 23.5677 48.238 23.4427L48.0096 23.3773V12.6697C48.0096 4.53946 47.9788 1.86808 47.8818 1.57214C47.7113 1.05194 46.8409 0.26742 46.2638 0.113717C45.6739 -0.0433947 18.3041 -0.0350609 17.75 0.122335ZM27.8365 3.02905V4.54429H22.7933H17.75V3.26154C17.75 2.02577 17.7595 1.97017 18.0079 1.7463L18.2658 1.5138H23.0512H27.8365V3.02905ZM34.5609 4.75169V7.98957L33.4729 7.02455C32.5379 6.19524 32.3363 6.05953 32.0393 6.05953C31.7422 6.05953 31.5406 6.19524 30.6056 7.02455L29.5176 7.98957V4.75169V1.5138H32.0393H34.5609V4.75169ZM46.0706 1.7463C46.3191 1.97017 46.3285 2.02577 46.3285 3.26154V4.54429H41.2852H36.242V3.02905V1.5138H41.0273H45.8127L46.0706 1.7463ZM27.8365 8.0999C27.8365 10.1401 27.8365 10.1404 28.0945 10.3728C28.2614 10.5233 28.4716 10.6053 28.6904 10.6053C28.9847 10.6053 29.2239 10.4307 30.5339 9.26001L32.0393 7.91466L33.5446 9.26001C34.8547 10.4307 35.0938 10.6053 35.3881 10.6053C35.6069 10.6053 35.8171 10.5233 35.984 10.3728C36.242 10.1404 36.242 10.1401 36.242 8.0999V6.05953H41.2852H46.3285V14.5753V23.091L45.987 23.1577C45.7992 23.1944 44.96 23.4532 44.1221 23.7329L42.5986 24.2412L39.6208 24.2419C36.8329 24.2425 36.6263 24.2307 36.3839 24.0589C35.9477 23.7495 35.2891 23.6115 30.9886 22.9279C25.3019 22.0239 25.3685 22.0318 23.4762 22.0395C21.6403 22.0469 20.0384 22.2514 18.5643 22.6667L17.75 22.8961V14.4778V6.05953H22.7933H27.8365V8.0999ZM24.9472 23.5778C26.37 23.6951 34.9391 25.0703 35.3027 25.2398C35.9423 25.5379 36.3178 26.2885 36.1344 26.9025C35.9184 27.6255 35.2915 28.0539 34.468 28.041C34.2012 28.0368 31.9991 27.715 29.5744 27.3259C27.1496 26.9367 25.154 26.6287 25.1399 26.6415C25.0834 26.6923 24.8662 28.0365 24.9083 28.0744C25.0313 28.1853 34.0645 29.5687 34.6394 29.5647C35.8297 29.5562 36.8899 28.958 37.4783 27.9629L37.8023 27.4149L42.111 26.0051C45.8863 24.7697 46.4777 24.6011 46.8898 24.643C48.2998 24.7862 48.8403 26.3586 47.7832 27.2422C47.481 27.4947 30.057 33.2328 28.8347 33.4822C27.7012 33.7136 26.1237 33.699 24.5152 33.4423C21.7323 32.9982 19.5323 33.279 17.5489 34.3316L16.9747 34.6363L14.368 31.2797C12.9342 29.4336 11.7611 27.8855 11.7611 27.8395C11.7611 27.7264 14.6344 25.9231 15.6275 25.4131C17.5493 24.4259 19.91 23.7636 22.1463 23.5843C23.4342 23.4809 23.7622 23.4801 24.9472 23.5778ZM12.6709 31.7456C14.7421 34.4138 16.4367 36.6484 16.4367 36.7114C16.4367 36.7743 15.2783 37.5584 13.8625 38.4538C12.4467 39.3492 10.9247 40.3119 10.4803 40.5932L9.67238 41.1047L5.87827 36.2105C3.79151 33.5188 2.0748 31.2752 2.06325 31.2247C2.04055 31.1253 8.58293 26.9181 8.7834 26.9032C8.85043 26.8982 10.5998 29.0772 12.6709 31.7456Z" fill="#151A32"/>
</svg>
