<svg width="42" height="45" viewBox="0 0 42 45" fill="none" xmlns="http://www.w3.org/2000/svg">
<path fill-rule="evenodd" clip-rule="evenodd" d="M19.5834 0.0971671C18.8263 0.253388 17.9494 0.573079 17.2546 0.946036C16.7119 1.23735 15.5467 2.19179 15.2664 2.57461C15.126 2.76638 14.9109 2.79746 10.3405 3.28778C7.71199 3.56975 5.48361 3.82814 5.38846 3.86202C5.29331 3.89581 5.15199 4.0344 5.07427 4.16984C4.94718 4.39155 4.96683 4.67133 5.27076 6.97544C5.45641 8.38301 5.60866 9.60344 5.60905 9.68753C5.60963 9.80996 5.52532 9.84034 5.185 9.84034C4.92308 9.84034 4.68138 9.89894 4.55487 9.99316C4.44201 10.0773 3.75584 11.0301 3.03028 12.1107L1.71088 14.0755L0.857553 28.8768C0.388201 37.0175 0.00238157 43.7892 5.85225e-05 43.925C-0.00274849 44.0848 0.0954971 44.2618 0.278727 44.4271L0.561655 44.6823H21H41.4383L41.7213 44.4271C41.9045 44.2618 42.0027 44.0848 41.9999 43.925C41.9976 43.7892 41.6118 37.0175 41.1424 28.8768L40.2891 14.0755L38.9697 12.1107C38.2442 11.0301 37.558 10.0773 37.4451 9.99316C37.2835 9.87274 37.0558 9.84034 36.3729 9.84034C35.5922 9.84034 35.5111 9.82515 35.5574 9.68753C35.7361 9.15538 36.0998 7.59518 36.0998 7.36036C36.0998 7.14092 35.8331 6.71304 35.6846 6.69409C35.6734 6.69269 33.9437 6.32785 31.8409 5.88329L28.0175 5.07512L27.8116 4.49922C27.0798 2.45245 25.3154 0.895301 22.9843 0.238631C22.1087 -0.00797005 20.431 -0.0778286 19.5834 0.0971671ZM22.4469 1.68793C23.3675 1.92118 24.1077 2.3205 24.8339 2.97578C25.4239 3.50819 26.0333 4.32614 26.0333 4.58567C26.0333 4.62846 25.6086 4.57187 25.0895 4.46001C23.3155 4.07771 23.2018 4.13892 22.8008 5.69301C22.1771 8.11099 22.2439 7.9491 21.8336 8.0366C21.627 8.08069 21.4363 8.08165 21.395 8.03878C21.3547 7.99704 21.178 6.82333 21.0023 5.43052C20.8265 4.03772 20.6248 2.79432 20.554 2.66744C20.3493 2.30086 19.9969 2.24104 18.8553 2.37884C18.3047 2.44529 17.8107 2.50013 17.7574 2.50074C17.5585 2.50301 18.56 1.99723 19.1178 1.81377C20.2488 1.44177 21.3156 1.40143 22.4469 1.68793ZM19.3921 6.06361C19.5404 7.25235 19.6801 8.28643 19.7026 8.36161C19.7364 8.47452 19.0496 8.64864 15.7498 9.36373C12.2193 10.1289 11.7253 10.2564 11.49 10.4646C11.3437 10.5942 11.2239 10.774 11.2239 10.8643C11.2239 10.9545 11.3763 11.5885 11.5626 12.2731C11.749 12.9577 11.9014 13.5353 11.9014 13.5566C11.9014 13.5778 10.9915 13.5952 9.87949 13.5952H7.85766L7.80268 13.3114C7.63649 12.4534 6.75102 5.2888 6.80513 5.23989C6.8664 5.18462 18.2101 3.93144 18.8271 3.9118L19.1224 3.90236L19.3921 6.06361ZM29.4051 6.92576C32.0491 7.48393 34.2272 7.95259 34.2455 7.96717C34.2638 7.98176 33.9548 9.24428 33.5588 10.7727L32.8388 13.5516L30.4081 13.5749L27.9775 13.5982L27.88 13.2693C27.8265 13.0883 27.4736 11.7811 27.0962 10.3643C26.7186 8.94746 26.3445 7.69804 26.2648 7.58784C26.0195 7.24868 25.7246 7.20589 24.8694 7.38551C23.9805 7.5723 24.0158 7.61055 24.2513 6.7147C24.4503 5.95778 24.467 5.9108 24.5381 5.9108C24.5709 5.9108 26.7611 6.3675 29.4051 6.92576ZM25.5609 11.0885C25.8636 12.2313 26.1381 13.2628 26.1709 13.3808L26.2305 13.5952H19.9409H13.6511L13.5543 13.2678C13.5011 13.0877 13.3748 12.6181 13.2737 12.2243L13.0898 11.5082L15.9076 10.8919C17.4574 10.5529 20.0538 9.98434 21.6776 9.6285C23.3013 9.27257 24.7154 8.98798 24.8202 8.9961C24.9865 9.00894 25.0801 9.27327 25.5609 11.0885ZM5.96583 12.2427C6.03039 12.7224 6.08547 13.2231 6.08847 13.3551L6.09379 13.5952H5.07746C4.51848 13.5952 4.06113 13.5777 4.06113 13.5562C4.06113 13.5348 4.39207 13.0218 4.79657 12.4163C5.71736 11.038 5.80225 11.0253 5.96583 12.2427ZM37.2065 12.421C37.6094 13.024 37.9389 13.5348 37.9389 13.5562C37.9389 13.5777 37.1737 13.5952 36.2385 13.5952C34.6647 13.5952 34.5417 13.5839 34.5873 13.4424C34.6144 13.3583 34.7518 12.8476 34.8927 12.3072L35.1487 11.3248H35.8115H36.4743L37.2065 12.421ZM38.7134 15.4509C38.7135 15.6069 39.0619 21.8451 39.4876 29.3134C39.9133 36.7817 40.2616 42.961 40.2617 43.045C40.2619 43.19 39.2802 43.1978 21 43.1978C2.71976 43.1978 1.73808 43.19 1.73828 43.045C1.73837 42.961 2.08673 36.7817 2.51243 29.3134C2.93813 21.8451 3.28649 15.6069 3.28659 15.4509L3.28678 15.1671H21H38.7132L38.7134 15.4509ZM13.7405 16.8275C12.4218 17.3822 11.8376 18.7139 12.4195 19.8389C12.6492 20.2828 13.2718 20.8676 13.6215 20.9677C13.8044 21.0201 13.8168 21.1222 13.8626 22.9633C13.9151 25.0673 13.9932 25.4889 14.52 26.5097C15.498 28.4053 17.3245 29.7169 19.5684 30.135C23.2415 30.8195 26.8103 28.8487 27.881 25.5445C28.0564 25.0028 28.0961 24.6033 28.1372 22.9633C28.1832 21.1223 28.1956 21.0201 28.3785 20.9677C28.6906 20.8784 29.3225 20.3153 29.5377 19.9347C30.4056 18.3999 29.0078 16.5186 27.1145 16.6735C25.8606 16.776 24.9299 17.5926 24.803 18.7016C24.706 19.55 25.2509 20.4892 26.0715 20.8879L26.4204 21.0575V22.8093C26.4204 24.7857 26.3385 25.2188 25.7843 26.1702C25.1561 27.2487 23.9596 28.145 22.6288 28.5339C20.2015 29.2432 17.4053 28.2126 16.2157 26.1702C15.6615 25.2188 15.5796 24.7857 15.5796 22.8093V21.0575L15.9285 20.8879C16.4144 20.6518 16.8987 20.1128 17.0888 19.5964C17.4699 18.561 16.9296 17.4081 15.8215 16.8928C15.2453 16.6247 14.2936 16.5949 13.7405 16.8275ZM15.0899 18.2644C15.3896 18.4042 15.5952 18.8052 15.513 19.0893C15.461 19.2684 15.4608 19.2684 15.2169 19.0952C14.9043 18.8734 14.5111 18.8745 14.1961 19.098C13.9526 19.2708 13.947 19.2709 13.8888 19.1054C13.7876 18.8179 13.9463 18.4761 14.2614 18.3028C14.625 18.1027 14.7327 18.0977 15.0899 18.2644ZM27.6699 18.2629C27.9844 18.4096 28.2092 18.827 28.1161 19.0915L28.0519 19.274L27.8039 19.098C27.5114 18.8904 27.0306 18.8695 26.7422 19.0517C26.5629 19.165 26.53 19.1652 26.4828 19.0542C26.3918 18.8404 26.6198 18.4012 26.8905 18.2684C27.2176 18.1081 27.3363 18.1073 27.6699 18.2629Z" fill="#151A32"/>
</svg>
