<svg width="50" height="45" viewBox="0 0 50 45" fill="none" xmlns="http://www.w3.org/2000/svg">
<path fill-rule="evenodd" clip-rule="evenodd" d="M11.6667 0.120148C11.1554 0.26416 10.2834 1.07108 10.1267 1.54528C9.9475 2.08726 9.9475 9.82538 10.1267 10.3674C10.2957 10.8787 11.1586 11.6499 11.7308 11.801C12.0096 11.8745 12.9482 11.9142 14.4131 11.9142H16.6667V12.6589V13.4036H11.139C7.80073 13.4036 5.53719 13.4391 5.42417 13.4931C5.32125 13.5423 4.24083 15.0085 3.02333 16.7513L0.809688 19.9199L0.850208 21.2C0.888229 22.4028 0.910417 22.5175 1.21771 23.1019C1.65948 23.9419 2.26156 24.5017 3.15125 24.8995C3.55323 25.0791 3.94615 25.2262 4.02437 25.2262C4.14344 25.2262 4.16667 26.4486 4.16667 32.7201V40.2139H3.16313C1.83229 40.2139 1.42156 40.3336 0.777708 40.909C0.119479 41.4972 0 41.8468 0 43.1846C0 44.1655 0.0146875 44.2385 0.255729 44.4538L0.511354 44.6823H25H49.4886L49.7443 44.4538C49.9853 44.2385 50 44.1655 50 43.1846C50 41.8468 49.8805 41.4972 49.2223 40.909C48.5784 40.3336 48.1677 40.2139 46.8369 40.2139H45.8333V32.7201C45.8333 26.4486 45.8566 25.2262 45.9756 25.2262C46.0539 25.2262 46.4468 25.0791 46.8487 24.8995C47.7384 24.5017 48.3405 23.9419 48.7823 23.1019C49.0896 22.5175 49.1118 22.4028 49.1498 21.2L49.1903 19.9199L46.9767 16.7513C45.7592 15.0085 44.6787 13.5423 44.5758 13.4931C44.4628 13.4391 42.1993 13.4036 38.861 13.4036H33.3333V12.6589V11.9142H35.5869C37.0518 11.9142 37.9904 11.8745 38.2692 11.801C38.8414 11.6499 39.7043 10.8787 39.8733 10.3674C40.0525 9.82538 40.0525 2.08726 39.8733 1.54528C39.7043 1.03393 38.8414 0.262764 38.2692 0.111677C37.6848 -0.0425758 12.2157 -0.0344769 11.6667 0.120148ZM38.0776 1.71648L38.3333 1.94492V5.95632V9.96772L38.0776 10.1962L37.822 10.4247H25H12.178L11.9224 10.1962L11.6667 9.96772V5.95632V1.94492L11.9224 1.71648L12.178 1.48794H25H37.822L38.0776 1.71648ZM15.8333 2.35434C15.3221 2.49835 14.4501 3.30527 14.2933 3.77947C14.0048 4.6523 14.2082 5.34816 14.9444 6.00603C15.4816 6.48601 16.0115 6.70105 16.6574 6.70105C17.0952 6.70105 17.5 7.0589 17.5 7.44578C17.5 7.82848 17.0949 8.19051 16.6667 8.19051C16.2384 8.19051 15.8333 7.82848 15.8333 7.44578C15.8333 6.79498 14.9391 6.46777 14.4224 6.92959C13.9252 7.37382 14.1554 8.27979 14.9444 8.98495C15.4887 9.47145 16.0114 9.67997 16.6863 9.67997C17.9744 9.67997 19.1667 8.60607 19.1667 7.44578C19.1667 6.28959 17.9744 5.21159 16.6954 5.21159C15.9391 5.21159 15.56 4.42339 16.0891 3.95067C16.6057 3.48884 17.5 3.81606 17.5 4.46686C17.5 5.11766 18.3943 5.44488 18.9109 4.98305C19.4081 4.53882 19.1779 3.63286 18.389 2.92769C17.6559 2.2727 16.8028 2.0813 15.8333 2.35434ZM20.2557 2.46121L20 2.68965V5.95632V9.22299L20.2557 9.45144C20.594 9.7538 21.0727 9.7538 21.4109 9.45144C21.6573 9.23137 21.6667 9.17672 21.6667 7.96197V6.70105H22.5H23.3333V7.96197C23.3333 9.17672 23.3427 9.23137 23.5891 9.45144C23.7502 9.59554 23.9637 9.67997 24.1667 9.67997C24.3696 9.67997 24.5831 9.59554 24.7443 9.45144L25 9.22299V5.95632V2.68965L24.7443 2.46121C24.406 2.15885 23.9273 2.15885 23.5891 2.46121C23.3427 2.68128 23.3333 2.73592 23.3333 3.95067V5.21159H22.5H21.6667V3.95067C21.6667 2.73592 21.6573 2.68128 21.4109 2.46121C21.2498 2.3171 21.0362 2.23267 20.8333 2.23267C20.6304 2.23267 20.4169 2.3171 20.2557 2.46121ZM27.5 2.35434C26.9887 2.49835 26.1168 3.30527 25.96 3.77947C25.8798 4.02216 25.8333 4.82014 25.8333 5.95632C25.8333 8.10729 25.8942 8.3443 26.611 8.98495C27.3745 9.66722 28.1893 9.83944 29.199 9.53196C29.7882 9.35248 30.528 8.66072 30.7095 8.11939C30.7866 7.88946 30.8333 7.07286 30.8333 5.95632C30.8333 4.83979 30.7866 4.02319 30.7095 3.79325C30.528 3.25193 29.7882 2.56016 29.199 2.38068C28.6484 2.21303 28.0354 2.20353 27.5 2.35434ZM31.9224 2.46121L31.6667 2.68965V5.95632V9.22299L31.9224 9.45144C32.2606 9.7538 32.7394 9.7538 33.0776 9.45144C33.324 9.23137 33.3333 9.17672 33.3333 7.96197V6.70105H33.9398C34.8445 6.70105 35.4402 6.48266 35.9686 5.95744C36.9373 4.9946 36.9069 3.83738 35.889 2.92769C35.2307 2.33944 34.8395 2.23267 33.3426 2.23267C32.245 2.23267 32.1633 2.2458 31.9224 2.46121ZM28.9109 3.95067C29.1646 4.17725 29.1667 4.19354 29.1667 5.95632C29.1667 7.7191 29.1646 7.73539 28.9109 7.96197C28.7498 8.10608 28.5362 8.19051 28.3333 8.19051C28.1304 8.19051 27.9169 8.10608 27.7557 7.96197C27.5021 7.73539 27.5 7.7191 27.5 5.95632C27.5 4.19354 27.5021 4.17725 27.7557 3.95067C27.9169 3.80656 28.1304 3.72213 28.3333 3.72213C28.5362 3.72213 28.7498 3.80656 28.9109 3.95067ZM34.7443 3.95067C34.9055 4.09468 35 4.28552 35 4.46686C35 4.94219 34.606 5.21159 33.9109 5.21159H33.3333V4.46686V3.72213H33.9109C34.3854 3.72213 34.5344 3.763 34.7443 3.95067ZM31.6667 12.6589V13.4036H25H18.3333V12.6589V11.9142H25H31.6667V12.6589ZM9.0625 17.1273L7.81167 19.3615H5.52042C4.26021 19.3615 3.22917 19.3409 3.22917 19.3158C3.22917 19.2906 3.91698 18.2852 4.75771 17.0816L6.28625 14.8931H8.29979H10.3133L9.0625 17.1273ZM16.25 14.9552C16.25 14.9893 15.8402 15.9946 15.3394 17.1894L14.4288 19.3615H12.0577H9.68667L10.9375 17.1273L12.1883 14.8931H14.2192C15.3361 14.8931 16.25 14.921 16.25 14.9552ZM21.5202 15.2422C21.4869 15.4342 21.3653 16.2825 21.25 17.1273C21.1347 17.9721 21.0131 18.8204 20.9798 19.0124L20.9192 19.3615H18.5846C17.3005 19.3615 16.25 19.3335 16.25 19.2994C16.25 19.2653 16.6598 18.2599 17.1606 17.0652L18.0712 14.8931H19.826H21.5808L21.5202 15.2422ZM26.8131 15.2422C26.8465 15.4342 26.968 16.2825 27.0833 17.1273C27.1986 17.9721 27.3202 18.8204 27.3535 19.0124L27.4142 19.3615H25H22.5858L22.6465 19.0124C22.6798 18.8204 22.8014 17.9721 22.9167 17.1273C23.032 16.2825 23.1535 15.4342 23.1869 15.2422L23.2475 14.8931H25H26.7525L26.8131 15.2422ZM32.8394 17.0652C33.3402 18.2599 33.75 19.2653 33.75 19.2994C33.75 19.3335 32.6995 19.3615 31.4154 19.3615H29.0808L29.0202 19.0124C28.9869 18.8204 28.8653 17.9721 28.75 17.1273C28.6347 16.2825 28.5131 15.4342 28.4798 15.2422L28.4192 14.8931H30.174H31.9287L32.8394 17.0652ZM39.0625 17.1273L40.3133 19.3615H37.9423H35.5713L34.6606 17.1894C34.1598 15.9946 33.75 14.9893 33.75 14.9552C33.75 14.921 34.6639 14.8931 35.7808 14.8931H37.8117L39.0625 17.1273ZM45.2423 17.0816C46.083 18.2852 46.7708 19.2906 46.7708 19.3158C46.7708 19.3409 45.7398 19.3615 44.4796 19.3615H42.1883L40.9375 17.1273L39.6867 14.8931H41.7002H43.7137L45.2423 17.0816ZM7.5 21.3754C7.5 21.6639 7.44302 22.0723 7.37333 22.2831C7.20427 22.7944 6.34135 23.5656 5.76917 23.7167C4.7925 23.9745 4.01385 23.7927 3.27771 23.1348C2.68729 22.6072 2.5 22.1834 2.5 21.3754V20.8509H5H7.5V21.3754ZM14.1667 21.3754C14.1667 22.1834 13.9794 22.6072 13.389 23.1348C12.8495 23.617 12.3219 23.8299 11.6667 23.8299C11.0115 23.8299 10.4839 23.617 9.94438 23.1348C9.35396 22.6072 9.16667 22.1834 9.16667 21.3754V20.8509H11.6667H14.1667V21.3754ZM20.8333 21.3754C20.8333 22.1834 20.646 22.6072 20.0556 23.1348C19.5161 23.617 18.9885 23.8299 18.3333 23.8299C17.6781 23.8299 17.1505 23.617 16.611 23.1348C16.0206 22.6072 15.8333 22.1834 15.8333 21.3754V20.8509H18.3333H20.8333V21.3754ZM27.5 21.3754C27.5 21.6639 27.443 22.0723 27.3733 22.2831C27.2043 22.7944 26.3414 23.5656 25.7692 23.7167C24.7925 23.9745 24.0139 23.7927 23.2777 23.1348C22.6873 22.6072 22.5 22.1834 22.5 21.3754V20.8509H25H27.5V21.3754ZM34.1667 21.3754C34.1667 21.6639 34.1097 22.0723 34.04 22.2831C33.8709 22.7944 33.008 23.5656 32.4358 23.7167C31.4592 23.9745 30.6805 23.7927 29.9444 23.1348C29.354 22.6072 29.1667 22.1834 29.1667 21.3754V20.8509H31.6667H34.1667V21.3754ZM40.8333 21.3754C40.8333 21.6639 40.7764 22.0723 40.7067 22.2831C40.5376 22.7944 39.6747 23.5656 39.1025 23.7167C38.1258 23.9745 37.3472 23.7927 36.611 23.1348C36.0206 22.6072 35.8333 22.1834 35.8333 21.3754V20.8509H38.3333H40.8333V21.3754ZM47.5 21.3754C47.5 21.6639 47.443 22.0723 47.3733 22.2831C47.2043 22.7944 46.3414 23.5656 45.7692 23.7167C44.7925 23.9745 44.0139 23.7927 43.2777 23.1348C42.6873 22.6072 42.5 22.1834 42.5 21.3754V20.8509H45H47.5V21.3754ZM8.79823 24.2598C9.07437 24.4963 9.6101 24.821 9.98865 24.9813C10.6097 25.2443 10.774 25.2728 11.6667 25.2728C12.5594 25.2728 12.7236 25.2443 13.3447 24.9813C13.7232 24.821 14.2506 24.5035 14.5166 24.2758L15 23.8618L15.4834 24.2758C15.7494 24.5035 16.2768 24.821 16.6553 24.9813C17.2764 25.2443 17.4406 25.2728 18.3333 25.2728C19.226 25.2728 19.3903 25.2443 20.0114 24.9813C20.3899 24.821 20.9173 24.5035 21.1832 24.2758L21.6667 23.8618L22.1501 24.2758C22.416 24.5035 22.9434 24.821 23.322 24.9813C23.943 25.2443 24.1073 25.2728 25 25.2728C25.8927 25.2728 26.057 25.2443 26.678 24.9813C27.0566 24.821 27.584 24.5035 27.8499 24.2758L28.3333 23.8618L28.8168 24.2758C29.0827 24.5035 29.6101 24.821 29.9886 24.9813C30.6097 25.2443 30.774 25.2728 31.6667 25.2728C32.5594 25.2728 32.7236 25.2443 33.3447 24.9813C33.7232 24.821 34.2506 24.5035 34.5166 24.2758L35 23.8618L35.4834 24.2758C35.7494 24.5035 36.2768 24.821 36.6553 24.9813C37.2764 25.2443 37.4406 25.2728 38.3333 25.2728C39.226 25.2728 39.3903 25.2443 40.0114 24.9813C40.3899 24.821 40.9173 24.5035 41.1832 24.2758L41.6667 23.8618L42.1481 24.2741C42.5905 24.6528 43.7272 25.2259 44.0365 25.2261C44.1396 25.2262 44.1667 26.7871 44.1667 32.7201V40.2139H40.8333H37.5V35.2211C37.5 31.5731 37.4658 30.125 37.3733 29.845C37.2043 29.3337 36.3414 28.5625 35.7692 28.4114C35.1506 28.2482 14.8494 28.2482 14.2308 28.4114C13.6586 28.5625 12.7957 29.3337 12.6267 29.845C12.5342 30.125 12.5 31.5731 12.5 35.2211V40.2139H9.16667H5.83333V32.742V25.2699L6.32958 25.1124C6.95198 24.9148 7.74125 24.4521 8.04729 24.1052C8.17594 23.9594 8.28458 23.8379 8.28865 23.835C8.29271 23.8322 8.52198 24.0233 8.79823 24.2598ZM24.1667 35.0008V40.2139H19.1667H14.1667V35.2294V30.2447L14.4224 30.0162L14.678 29.7877H19.4224H24.1667V35.0008ZM35.5776 30.0162L35.8333 30.2447V35.2294V40.2139H30.8333H25.8333V35.0008V29.7877H30.5776H35.322L35.5776 30.0162ZM21.9224 34.4846C21.699 34.6842 21.6667 34.7965 21.6667 35.3732C21.6667 35.9499 21.699 36.0621 21.9224 36.2617C22.0835 36.4058 22.2971 36.4903 22.5 36.4903C22.7029 36.4903 22.9165 36.4058 23.0776 36.2617C23.301 36.0621 23.3333 35.9499 23.3333 35.3732C23.3333 34.7965 23.301 34.6842 23.0776 34.4846C22.9165 34.3405 22.7029 34.2561 22.5 34.2561C22.2971 34.2561 22.0835 34.3405 21.9224 34.4846ZM26.9224 34.4846C26.699 34.6842 26.6667 34.7965 26.6667 35.3732C26.6667 35.9499 26.699 36.0621 26.9224 36.2617C27.0835 36.4058 27.2971 36.4903 27.5 36.4903C27.7029 36.4903 27.9165 36.4058 28.0776 36.2617C28.301 36.0621 28.3333 35.9499 28.3333 35.3732C28.3333 34.7965 28.301 34.6842 28.0776 34.4846C27.9165 34.3405 27.7029 34.2561 27.5 34.2561C27.2971 34.2561 27.0835 34.3405 26.9224 34.4846ZM48.0776 41.9319C48.2876 42.1195 48.3333 42.2526 48.3333 42.6767V43.1929H25H1.66667V42.6767C1.66667 42.2526 1.7124 42.1195 1.9224 41.9319L2.17802 41.7034H25H47.822L48.0776 41.9319Z" fill="#151A32"/>
</svg>
