<?xml version="1.0" encoding="UTF-8"?>
<svg version="1.1" xmlns="http://www.w3.org/2000/svg" width="70" height="70">
<path d="M0 0 C9.88869366 5.81586346 16.18371269 13.07946401 19.23828125 24.31640625 C20.38735482 37.08982869 18.61354015 47.16824221 10.296875 57.2734375 C3.21022892 64.30629499 -5.61611128 67.71862775 -15.51171875 67.69140625 C-26.47606606 67.63253223 -34.98655606 64.15103481 -42.76171875 56.31640625 C-50.24991451 46.1985229 -51.71146652 36.5669503 -50.76171875 24.31640625 C-48.94192176 16.08918036 -44.07411436 8.50798906 -37.296875 3.4921875 C-26.19180869 -3.40464315 -12.20554198 -5.88737907 0 0 Z " fill="#FF6F61" transform="translate(50.76171875,2.68359375)"/>
<path d="M0 0 C1.50046875 0.00386719 1.50046875 0.00386719 3.03125 0.0078125 C4.0315625 0.00523438 5.031875 0.00265625 6.0625 0 C8.53125 0.1328125 8.53125 0.1328125 9.53125 1.1328125 C9.57217937 3.46578683 9.57366723 5.79986475 9.53125 8.1328125 C8.21125 8.4628125 6.89125 8.7928125 5.53125 9.1328125 C6.5290258 12.12613989 7.2834525 13.08047565 9.53125 15.1328125 C8.87125 15.1328125 8.21125 15.1328125 7.53125 15.1328125 C7.58345703 15.98552734 7.58345703 15.98552734 7.63671875 16.85546875 C7.83355592 22.47001476 7.08620317 26.12936255 4.53125 31.1328125 C3.54125 31.1328125 2.55125 31.1328125 1.53125 31.1328125 C1.53125 32.4528125 1.53125 33.7728125 1.53125 35.1328125 C-2.75875 35.1328125 -7.04875 35.1328125 -11.46875 35.1328125 C-12.12875 36.4528125 -12.78875 37.7728125 -13.46875 39.1328125 C-14.46875 40.1328125 -14.46875 40.1328125 -16.6640625 40.51953125 C-20.64614441 39.97046982 -22.65624535 37.71457986 -25.34375 34.9453125 C-25.85421875 34.46255859 -26.3646875 33.97980469 -26.890625 33.48242188 C-28.3359375 32.02734375 -28.3359375 32.02734375 -30.46875 29.1328125 C-30.39517632 25.5329575 -29.4897329 24.16428686 -27.46875 21.1328125 C-24.30759224 22.50264753 -23.4760408 23.1218763 -21.46875 26.1328125 C-22.12875 27.1228125 -22.78875 28.1128125 -23.46875 29.1328125 C-22.80875 29.1328125 -22.14875 29.1328125 -21.46875 29.1328125 C-20.80875 28.4728125 -20.14875 27.8128125 -19.46875 27.1328125 C-16.84375 27.0078125 -16.84375 27.0078125 -14.46875 27.1328125 C-15.12875 26.3490625 -15.78875 25.5653125 -16.46875 24.7578125 C-18.87589287 21.11246305 -19.16657821 17.79217944 -18.984375 13.484375 C-18.40946709 10.86244651 -17.78298975 9.77228048 -15.84375 7.9453125 C-12.46875 6.1328125 -12.46875 6.1328125 -9.28125 6.2578125 C-7.33734094 6.86258421 -5.40009102 7.48903216 -3.46875 8.1328125 C-3.4996875 6.43125 -3.4996875 6.43125 -3.53125 4.6953125 C-3.45213427 0.18571608 -3.45213427 0.18571608 0 0 Z " fill="#FF9E95" transform="translate(45.46875,14.8671875)"/>
<path d="M0 0 C3.33543179 1.23265957 4.69320582 2.26330449 6.875 5.0625 C7.265625 8.296875 7.265625 8.296875 7.125 11.8125 C7.08890625 12.98296875 7.0528125 14.1534375 7.015625 15.359375 C6.94601563 16.69742188 6.94601563 16.69742188 6.875 18.0625 C4.895 19.0525 4.895 19.0525 2.875 20.0625 C3.865 20.7225 4.855 21.3825 5.875 22.0625 C-1.88970588 24.2625 -1.88970588 24.2625 -6.125 23.0625 C-8.31203385 23.44157282 -8.31203385 23.44157282 -10.125 24.0625 C-10.125 25.7125 -10.125 27.3625 -10.125 29.0625 C-16.8784626 23.92399584 -16.8784626 23.92399584 -18.125 19.0625 C-18.125 17.7425 -18.125 16.4225 -18.125 15.0625 C-14.96384224 16.43233503 -14.1322908 17.0515638 -12.125 20.0625 C-12.785 21.0525 -13.445 22.0425 -14.125 23.0625 C-13.465 23.0625 -12.805 23.0625 -12.125 23.0625 C-11.465 22.4025 -10.805 21.7425 -10.125 21.0625 C-7.5 20.9375 -7.5 20.9375 -5.125 21.0625 C-5.785 20.27875 -6.445 19.495 -7.125 18.6875 C-9.53214287 15.04215055 -9.82282821 11.72186694 -9.640625 7.4140625 C-9.06571709 4.79213401 -8.43923975 3.70196798 -6.5 1.875 C-3.125 0.0625 -3.125 0.0625 0 0 Z " fill="#FFE1DE" transform="translate(36.125,20.9375)"/>
<path d="M0 0 C1.50046875 0.00386719 1.50046875 0.00386719 3.03125 0.0078125 C4.0315625 0.00523438 5.031875 0.00265625 6.0625 0 C8.53125 0.1328125 8.53125 0.1328125 9.53125 1.1328125 C9.57217937 3.46578683 9.57366723 5.79986475 9.53125 8.1328125 C4.58125 10.6078125 4.58125 10.6078125 -0.46875 13.1328125 C-0.46875 11.8128125 -0.46875 10.4928125 -0.46875 9.1328125 C-1.45875 8.8028125 -2.44875 8.4728125 -3.46875 8.1328125 C-3.51116723 5.79986475 -3.50967937 3.46578683 -3.46875 1.1328125 C-2.46875 0.1328125 -2.46875 0.1328125 0 0 Z " fill="#FFD0CC" transform="translate(45.46875,14.8671875)"/>
<path d="M0 0 C2.375 1.6875 2.375 1.6875 4 4 C4.25 6.75 4.25 6.75 4 9 C2.205625 8.4740625 2.205625 8.4740625 0.375 7.9375 C-3.37673012 6.98287828 -6.2006739 7.05016847 -10 8 C-9.64505955 5.37344067 -9.27538036 3.42031739 -7.8125 1.1875 C-5.06937448 -0.60972017 -3.20418874 -0.45774125 0 0 Z " fill="#FF7467" transform="translate(38,23)"/>
<path d="M0 0 C3.1066816 0.50721332 5.03322601 0.15497816 8.0625 -0.5 C9.0525 -0.17 10.0425 0.16 11.0625 0.5 C11.75 2.5625 11.75 2.5625 12.0625 4.5 C5.39583333 4.5 -1.27083333 4.5 -7.9375 4.5 C-7.6075 3.18 -7.2775 1.86 -6.9375 0.5 C-4.2949263 -0.41473705 -2.80547019 -0.47752684 0 0 Z " fill="#FF7568" transform="translate(32.9375,43.5)"/>
<path d="M0 0 C0 1.98 0 3.96 0 6 C-1.65 6 -3.3 6 -5 6 C-5 6.66 -5 7.32 -5 8 C-8.875 7.125 -8.875 7.125 -10 6 C-10.04080783 4.00041636 -10.04254356 1.99954746 -10 0 C-6.30581799 -1.231394 -3.7943739 -0.64432764 0 0 Z " fill="#FF7264" transform="translate(40,32)"/>
<path d="M0 0 C1.50433594 0.01353516 1.50433594 0.01353516 3.0390625 0.02734375 C3.80992188 0.03894531 4.58078125 0.05054687 5.375 0.0625 C5.375 0.7225 5.375 1.3825 5.375 2.0625 C4.65054688 2.08828125 3.92609375 2.1140625 3.1796875 2.140625 C-2.97909924 2.50194049 -6.92515769 2.96520157 -11.625 7.0625 C-13.7769437 10.29041555 -13.82586443 11.34650809 -13.625 15.0625 C-14.945 15.3925 -16.265 15.7225 -17.625 16.0625 C-18.285 14.7425 -18.945 13.4225 -19.625 12.0625 C-18.635 12.0625 -17.645 12.0625 -16.625 12.0625 C-16.439375 11.36125 -16.25375 10.66 -16.0625 9.9375 C-12.73443074 3.28136148 -7.25621354 -0.08437458 0 0 Z " fill="#FFD5D1" transform="translate(34.625,16.9375)"/>
<path d="M0 0 C0.66 0 1.32 0 2 0 C2.268125 0.969375 2.53625 1.93875 2.8125 2.9375 C3.204375 3.948125 3.59625 4.95875 4 6 C4.99 6.33 5.98 6.66 7 7 C7 6.34 7 5.68 7 5 C8.65 5 10.3 5 12 5 C12 3.35 12 1.7 12 0 C12.66 0 13.32 0 14 0 C14.33 1.98 14.66 3.96 15 6 C11.17482487 8.39073445 7.40334476 8.55966552 3 9 C0.70620251 5.55930376 0 4.27709699 0 0 Z " fill="#FFD9D5" transform="translate(28,33)"/>
<path d="M0 0 C3.41945641 2.27963761 3.56623263 3.32597111 5 7 C7.23457879 9.87302988 9.67152539 10.68612844 13 12 C13.33 12.66 13.66 13.32 14 14 C10.41175719 14.49224992 9.23561419 14.1778989 6.2890625 11.953125 C5.40992188 11.06109375 4.53078125 10.1690625 3.625 9.25 C2.73039062 8.36828125 1.83578125 7.4865625 0.9140625 6.578125 C-1 4 -1 4 -0.7890625 1.671875 C-0.52867188 1.12015625 -0.26828125 0.5684375 0 0 Z " fill="#FF7669" transform="translate(17,39)"/>
<path d="M0 0 C0.66 0 1.32 0 2 0 C2 1.98 2 3.96 2 6 C-0.31 6.66 -2.62 7.32 -5 8 C-5 7.34 -5 6.68 -5 6 C-5.99 6 -6.98 6 -8 6 C-7.67 5.34 -7.34 4.68 -7 4 C-5.35 4.33 -3.7 4.66 -2 5 C-2 4.34 -2 3.68 -2 3 C-3.98 3 -5.96 3 -8 3 C-8 2.67 -8 2.34 -8 2 C-5.36 2 -2.72 2 0 2 C0 1.34 0 0.68 0 0 Z " fill="#FF867A" transform="translate(52,17)"/>
<path d="M0 0 C2.475 0.99 2.475 0.99 5 2 C4.01 2.495 4.01 2.495 3 3 C3.03480469 3.56847656 3.06960937 4.13695312 3.10546875 4.72265625 C3.30230592 10.33720226 2.55495317 13.99655005 0 19 C-0.66 18.67 -1.32 18.34 -2 18 C-1.505 16.96875 -1.01 15.9375 -0.5 14.875 C0.97473902 11.47548422 1.27291106 8.72978451 1 5 C0.34 4.67 -0.32 4.34 -1 4 C-0.67 2.68 -0.34 1.36 0 0 Z " fill="#FFE7E5" transform="translate(50,27)"/>
<path d="M0 0 C0.89203125 0.11085937 1.7840625 0.22171875 2.703125 0.3359375 C3.37859375 0.43132813 4.0540625 0.52671875 4.75 0.625 C4.75 0.955 4.75 1.285 4.75 1.625 C-0.76272919 3.33584699 -3.78190155 4.0856443 -9.25 1.625 C-5.9353333 -0.40407167 -3.8184021 -0.50242133 0 0 Z " fill="#FFE9E7" transform="translate(37.25,41.375)"/>
<path d="M0 0 C0.70125 0.185625 1.4025 0.37125 2.125 0.5625 C5.33888698 1.05156976 7.83560336 0.66231558 11 0 C8.08596738 1.94268841 5.14191424 3.46395304 2 5 C2 3.68 2 2.36 2 1 C1.34 0.67 0.68 0.34 0 0 Z " fill="#FFE7E4" transform="translate(43,23)"/>
<path d="M0 0 C0.66 1.32 1.32 2.64 2 4 C0.68 4.33 -0.64 4.66 -2 5 C-2.66 3.68 -3.32 2.36 -4 1 C-2.68 0.67 -1.36 0.34 0 0 Z " fill="#FFD0CB" transform="translate(19,28)"/>
<path d="M0 0 C2.475 0.99 2.475 0.99 5 2 C4.01 2.495 4.01 2.495 3 3 C3 3.66 3 4.32 3 5 C1.68 4.67 0.36 4.34 -1 4 C-0.67 2.68 -0.34 1.36 0 0 Z " fill="#FFD9D5" transform="translate(50,27)"/>
</svg>
