<svg width="24" height="24" viewBox="0 0 24 24" fill="none" xmlns="http://www.w3.org/2000/svg">
<g clip-path="url(#clip0_512_9967)">
<path d="M234.38 210C220.67 185.937 199.261 167.188 173.6 156.77C186.361 147.199 195.787 133.856 200.543 118.631C205.3 103.405 205.145 87.0692 200.1 71.9367C195.056 56.8041 185.379 43.6423 172.438 34.3156C159.498 24.9888 143.952 19.97 128 19.97C112.049 19.97 96.5026 24.9888 83.5625 34.3156C70.6223 43.6423 60.9447 56.8041 55.9005 71.9367C50.8563 87.0692 50.7013 103.405 55.4574 118.631C60.2135 133.856 69.6396 147.199 82.4004 156.77C56.7397 167.188 35.3309 185.937 21.6204 210C20.7709 211.366 20.2047 212.889 19.9554 214.478C19.7062 216.067 19.7791 217.69 20.1697 219.251C20.5602 220.812 21.2606 222.278 22.2291 223.562C23.1976 224.846 24.4145 225.923 25.8074 226.728C27.2003 227.533 28.7408 228.049 30.3372 228.247C31.9337 228.444 33.5536 228.319 35.1006 227.877C36.6476 227.436 38.0902 226.689 39.3425 225.679C40.5948 224.669 41.6313 223.418 42.3904 222C60.5104 190.68 92.5104 172 128 172C163.49 172 195.49 190.69 213.61 222C215.256 224.645 217.865 226.547 220.887 227.304C223.909 228.06 227.106 227.612 229.804 226.053C232.501 224.495 234.487 221.948 235.341 218.953C236.195 215.957 235.85 212.746 234.38 210ZM76.0004 96C76.0004 85.7153 79.0502 75.6617 84.764 67.1103C90.4779 58.559 98.5991 51.894 108.101 47.9582C117.603 44.0225 128.058 42.9927 138.145 44.9991C148.232 47.0056 157.498 51.9581 164.77 59.2304C172.042 66.5027 176.995 75.7683 179.001 85.8553C181.008 95.9423 179.978 106.398 176.042 115.9C172.106 125.401 165.441 133.523 156.89 139.236C148.339 144.95 138.285 148 128 148C114.214 147.984 100.997 142.5 91.2484 132.752C81.5 123.004 76.0163 109.786 76.0004 96Z" fill="black"/>
<path d="M5 20V19C5 17.1435 5.7375 15.363 7.05025 14.0503C8.36301 12.7375 10.1435 12 12 12V12C13.8565 12 15.637 12.7375 16.9497 14.0503C18.2625 15.363 19 17.1435 19 19V20" stroke="#151A32" stroke-width="1.5" stroke-linecap="round" stroke-linejoin="round"/>
<path d="M12 12C13.0609 12 14.0783 11.5786 14.8284 10.8284C15.5786 10.0783 16 9.06087 16 8C16 6.93913 15.5786 5.92172 14.8284 5.17157C14.0783 4.42143 13.0609 4 12 4C10.9391 4 9.92172 4.42143 9.17157 5.17157C8.42143 5.92172 8 6.93913 8 8C8 9.06087 8.42143 10.0783 9.17157 10.8284C9.92172 11.5786 10.9391 12 12 12V12Z" stroke="#151A32" stroke-width="1.5" stroke-linecap="round" stroke-linejoin="round"/>
</g>
<defs>
<clipPath id="clip0_512_9967">
<rect width="24" height="24" fill="white"/>
</clipPath>
</defs>
</svg>
